<?xml version="1.0" standalone="no"?>
<!DOCTYPE svg PUBLIC "-//W3C//DTD SVG 20010904//EN"
 "http://www.w3.org/TR/2001/REC-SVG-20010904/DTD/svg10.dtd">
<svg version="1.0" xmlns="http://www.w3.org/2000/svg"
 width="601.000000pt" height="601.000000pt" viewBox="0 0 601.000000 601.000000"
 preserveAspectRatio="xMidYMid meet">
<metadata>
Created by potrace 1.14, written by Peter Selinger 2001-2017
</metadata>
<g transform="translate(0.000000,601.000000) scale(0.100000,-0.100000)"
fill="#000000" stroke="none">
<path d="M210 3360 l0 -1450 300 0 300 0 0 605 0 605 577 -2 578 -3 313 -875
313 -875 -32 -100 c-17 -55 -40 -124 -51 -153 l-19 -52 -255 0 -254 0 0 -225
0 -225 444 0 444 0 10 28 c25 67 498 1420 673 1924 l194 558 298 0 297 0 0
-820 0 -820 285 0 285 0 0 1075 0 1075 -794 0 c-747 0 -794 -1 -798 -17 -56
-214 -434 -1543 -438 -1543 -4 0 -110 350 -236 778 l-230 777 -802 3 -802 2 0
335 0 335 735 0 735 0 0 255 0 255 -1035 0 -1035 0 0 -1450z"/>
<path d="M4340 4145 l0 -285 285 0 285 0 0 285 0 285 -285 0 -285 0 0 -285z"/>
<path d="M5280 1760 l0 -280 285 0 285 0 0 280 0 280 -285 0 -285 0 0 -280z"/>
</g>
</svg>
